HIERARCHY
ROOT RootJoint
{
    OFFSET   0.000000   0.000000   0.000000
    CHANNELS 6 Xposition Yposition Zposition Xrotation Yrotation Zrotation
    JOINT pelvis_lowerback
    {
        OFFSET   0.000000   0.093605   0.000000
        CHANNELS 3 Xrotation Yrotation Zrotation
        JOINT lowerback_torso
        {
            OFFSET   0.000000   0.100000   0.000000
            CHANNELS 3 Xrotation Yrotation Zrotation
            JOINT torso_head
            {
                OFFSET   0.000000   0.282350   0.000000
                CHANNELS 3 Xrotation Yrotation Zrotation
                End Site
                {
                    OFFSET   0.000000   0.192650   0.000000
                }
            }
            JOINT rTorso_Clavicle
            {
                OFFSET  -0.001000   0.157500   0.000000
                CHANNELS 3 Xrotation Yrotation Zrotation
                JOINT rShoulder
                {
                    OFFSET  -0.117647   0.000000   0.000000
                    CHANNELS 3 Xrotation Yrotation Zrotation
                    JOINT rElbow
                    {
                        OFFSET  -0.245000   0.000000   0.000000
                        CHANNELS 3 Xrotation Yrotation Zrotation
                        JOINT rWrist
                        {
                            OFFSET  -0.240000   0.000000   0.000000
                            CHANNELS 3 Xrotation Yrotation Zrotation
                            End Site
                            {
                                OFFSET  -0.116353  -0.002500   0.000000
                            }
                        }
                    }
                }
            }
            JOINT lTorso_Clavicle
            {
                OFFSET   0.001000   0.157500   0.000000
                CHANNELS 3 Xrotation Yrotation Zrotation
                JOINT lShoulder
                {
                    OFFSET   0.117647   0.000000   0.000000
                    CHANNELS 3 Xrotation Yrotation Zrotation
                    JOINT lElbow
                    {
                        OFFSET   0.245000   0.000000   0.000000
                        CHANNELS 3 Xrotation Yrotation Zrotation
                        JOINT lWrist
                        {
                            OFFSET   0.240000   0.000000   0.000000
                            CHANNELS 3 Xrotation Yrotation Zrotation
                            End Site
                            {
                                OFFSET   0.116353  -0.002500   0.000000
                            }
                        }
                    }
                }
            }
        }
    }
    JOINT rHip
    {
        OFFSET  -0.100000  -0.051395   0.000000
        CHANNELS 3 Xrotation Yrotation Zrotation
        JOINT rKnee
        {
            OFFSET   0.000000  -0.410000   0.000000
            CHANNELS 3 Xrotation Yrotation Zrotation
            JOINT rAnkle
            {
                OFFSET   0.000000  -0.390000   0.000000
                CHANNELS 3 Xrotation Yrotation Zrotation
                JOINT rToeJoint
                {
                    OFFSET   0.000000  -0.050000   0.130000
                    CHANNELS 3 Xrotation Yrotation Zrotation
                    End Site
                    {
                        OFFSET  -0.010000   0.002000   0.060000
                    }
                }
            }
        }
    }
    JOINT lHip
    {
        OFFSET   0.100000  -0.051395   0.000000
        CHANNELS 3 Xrotation Yrotation Zrotation
        JOINT lKnee
        {
            OFFSET   0.000000  -0.410000   0.000000
            CHANNELS 3 Xrotation Yrotation Zrotation
            JOINT lAnkle
            {
                OFFSET   0.000000  -0.390000   0.000000
                CHANNELS 3 Xrotation Yrotation Zrotation
                JOINT lToeJoint
                {
                    OFFSET   0.000000  -0.050000   0.130000
                    CHANNELS 3 Xrotation Yrotation Zrotation
                    End Site
                    {
                        OFFSET   0.010000   0.002000   0.060000
                    }
                }
            }
        }
    }
}
MOTION
Frames: 5
Frame Time:   0.008333
 -2.333255   0.923042   4.025443   0.753186  -3.361302  -2.480525   4.084412  -0.857864   0.116524  -3.251268  -2.819005  -1.000108   2.650361  -2.544777  -2.011718 -11.433800   0.239687 -29.300519 -45.680539   1.083406  -0.514868   0.003201  58.796032  -0.004128   0.210000   7.401796 -16.105754 -13.283295  -1.570806  28.404756 -51.501327  -3.489408  -3.198118   0.000819 -66.951410  -0.000091  -1.191362 -10.336752  20.901266  -4.983253  -2.834416  -7.559602  13.713215   0.000164  -0.000213   4.039115  -3.797409   7.811606 -19.429337  -0.000026   0.000118   4.697292   2.707263   5.159157   0.409848  -0.000106  -0.000028  -5.490336   5.032151   1.250129  -0.732472  -0.000189  -0.000140
 -2.332655   0.923305   4.025490   0.749622  -3.386253  -2.514705   4.090505  -0.878010   0.151355  -3.307323  -2.843786  -0.974131   2.568160  -2.526474  -2.051629 -11.451990   0.239141 -29.326466 -45.478368   1.128697  -0.545831   0.002950  59.013746  -0.003991   0.223403   7.463767 -16.102225 -13.304338  -1.600042  28.532306 -51.496804  -3.491838  -3.089730   0.001746 -66.627010   0.000635  -1.170259 -10.360582  20.963190  -5.025025  -2.875843  -7.565101  13.748821   0.000138  -0.000194   4.137557  -3.772991   7.877195 -19.081351  -0.000077  -0.000137   4.782149   2.739777   5.143931   0.234092  -0.000151  -0.000018  -5.303465   5.075567   1.242554  -0.848685  -0.000193  -0.000155
 -2.332127   0.923573   4.025537   0.752782  -3.399896  -2.551158   4.090368  -0.902366   0.186845  -3.369002  -2.873199  -0.947365   2.491806  -2.508848  -2.092461 -11.475025   0.231321 -29.358553 -45.291139   1.169817  -0.582382   0.002631  59.216379  -0.003762   0.236801   7.523753 -16.101502 -13.331967  -1.630007  28.672139 -51.500052  -3.498931  -2.977912   0.002584 -66.315011   0.001287  -1.170048 -10.329493  21.050261  -5.067079  -2.919895  -7.563064  13.778375   0.000115  -0.000172   4.232031  -3.754805   7.936567 -18.724331  -0.000118  -0.000327   4.861572   2.771478   5.135452   0.050912  -0.000184  -0.000027  -5.110579   5.118023   1.239824  -0.955688  -0.000184  -0.000173
 -2.331661   0.923837   4.025583   0.756380  -3.405642  -2.587451   4.085883  -0.928108   0.221871  -3.432513  -2.903911  -0.919930   2.421354  -2.492465  -2.131441 -11.500837   0.220403 -29.394388 -45.118230   1.208138  -0.622039   0.002285  59.405272  -0.003468   0.249585   7.579891 -16.109558 -13.361639  -1.658670  28.813573 -51.506407  -3.510073  -2.867878   0.003222 -66.023636   0.001788  -1.173682 -10.289386  21.149075  -5.105287  -2.961457  -7.558038  13.805960   0.000096  -0.000151   4.321853  -3.737632   7.991681 -18.378531  -0.000151  -0.000437   4.935273   2.802595   5.130767  -0.123709  -0.000203  -0.000045  -4.922368   5.158901   1.239430  -1.053767  -0.000169  -0.000188
 -2.331253   0.924148   4.025584   0.733103  -3.395065  -2.613368   4.103018  -0.957697   0.247443  -3.485622  -2.937382  -0.896727   2.356178  -2.477333  -2.168371 -11.528667   0.207504 -29.428489 -44.958605   1.242462  -0.662461   0.001968  59.582126  -0.003160   0.262484   7.634765 -16.130350 -13.391035  -1.687454  28.949373 -51.514546  -3.523410  -2.762837   0.003595 -65.752931   0.002087  -1.175316 -10.255425  21.257003  -5.118463  -3.003607  -7.563060  13.840014   0.000082  -0.000133   4.410752  -3.723289   8.041637 -18.010173  -0.000175  -0.000500   4.932657   2.827853   5.121045  -0.098967  -0.000155  -0.000028  -4.797832   5.200714   1.233336  -1.144653  -0.000156  -0.000212
